<svg xmlns="http://www.w3.org/2000/svg" viewBox="0 0 640 400" width="640" height="400" role="img" aria-label="Curtains sample image">
<defs><linearGradient id="g" x1="0" y1="0" x2="1" y2="1"><stop offset="0" stop-color="#19B0CC"/><stop offset="1" stop-color="#0E7E92"/></linearGradient></defs>
<rect width="640" height="400" fill="url(#g)"/>
<g transform="translate(470,90) scale(3.4)" fill="none" stroke="#ffffff" stroke-width="1.4" stroke-linejoin="round" opacity="0.16"><path d="M8 4v40M40 4v40M12 4c0 8-4 8-4 16s4 8 4 16M20 4c0 8-4 8-4 16s4 8 4 16M28 4c0 8-4 8-4 16s4 8 4 16M36 4c0 8-4 8-4 16s4 8 4 16"/></g>
<g transform="translate(40,300)"><rect x="0" y="-26" width="150" height="26" rx="13" fill="rgba(255,255,255,.18)"/><text x="14" y="-8" font-family="Inter,Arial,sans-serif" font-size="13" font-weight="700" fill="#eafcff">SAMPLE — replace</text></g>
<text x="40" y="352" font-family="'Bricolage Grotesque',Inter,Arial,sans-serif" font-size="34" font-weight="800" fill="#ffffff">Curtains</text>
</svg>