<svg xmlns="http://www.w3.org/2000/svg" viewBox="0 0 640 400" width="640" height="400" role="img" aria-label="Curtains — illustrative sample">
<defs>
<linearGradient id="wall" x1="0" y1="0" x2="0" y2="1"><stop offset="0" stop-color="#eef3f4"/><stop offset="1" stop-color="#dfe8ea"/></linearGradient>
<linearGradient id="sky" x1="0" y1="0" x2="0" y2="1"><stop offset="0" stop-color="#dff3f8"/><stop offset="1" stop-color="#bfe6ef"/></linearGradient>
<linearGradient id="fab" x1="0" y1="0" x2="0" y2="1"><stop offset="0" stop-color="#f4fafb"/><stop offset="1" stop-color="#dcecef"/></linearGradient>
<linearGradient id="wood" x1="0" y1="0" x2="0" y2="1"><stop offset="0" stop-color="#fbfdfd"/><stop offset="1" stop-color="#e7f0f2"/></linearGradient>
<linearGradient id="turq" x1="0" y1="0" x2="1" y2="1"><stop offset="0" stop-color="#25C9DD"/><stop offset="1" stop-color="#0B6C7E"/></linearGradient>
<filter id="sh" x="-20%" y="-20%" width="140%" height="140%"><feDropShadow dx="0" dy="6" stdDeviation="10" flood-color="#0b2b33" flood-opacity="0.14"/></filter>
</defs>
<rect width="640" height="400" fill="url(#wall)"/>
<rect x="0" y="340" width="640" height="60" fill="#d3dee0"/>
<rect x="160" y="64" width="320" height="270" rx="6" fill="url(#wood)" filter="url(#sh)"/><rect x="170" y="74" width="300" height="250" fill="url(#sky)"/>
<rect x="140" y="64" width="360" height="10" rx="5" fill="#0B6C7E"/><circle cx="150" cy="69" r="9" fill="#0B6C7E"/><circle cx="490" cy="69" r="9" fill="#0B6C7E"/>
<g filter="url(#sh)"><path d="M150 74 C 158 160, 142 260, 150 330 L 174 330 C 182 260, 166 160, 174 74 Z" fill="#eaf4f6"/><path d="M174 74 C 182 160, 166 260, 174 330 L 198 330 C 206 260, 190 160, 198 74 Z" fill="#d9e9ec"/><path d="M198 74 C 206 160, 190 260, 198 330 L 222 330 C 230 260, 214 160, 222 74 Z" fill="#eaf4f6"/><path d="M222 74 C 230 160, 214 260, 222 330 L 246 330 C 254 260, 238 160, 246 74 Z" fill="#d9e9ec"/><path d="M246 74 C 254 160, 238 260, 246 330 L 270 330 C 278 260, 262 160, 270 74 Z" fill="#eaf4f6"/><path d="M370 74 C 378 160, 362 260, 370 330 L 394 330 C 402 260, 386 160, 394 74 Z" fill="#eaf4f6"/><path d="M394 74 C 402 160, 386 260, 394 330 L 418 330 C 426 260, 410 160, 418 74 Z" fill="#d9e9ec"/><path d="M418 74 C 426 160, 410 260, 418 330 L 442 330 C 450 260, 434 160, 442 74 Z" fill="#eaf4f6"/><path d="M442 74 C 450 160, 434 260, 442 330 L 466 330 C 474 260, 458 160, 466 74 Z" fill="#d9e9ec"/><path d="M466 74 C 474 160, 458 260, 466 330 L 490 330 C 498 260, 482 160, 490 74 Z" fill="#eaf4f6"/></g>
</svg>