<svg xmlns="http://www.w3.org/2000/svg" viewBox="0 0 600 450" width="600" height="450" role="img" aria-label="Outdoor screens installed in Point Cook">
<defs>
<linearGradient id="wl6" x1="0" y1="0" x2="0" y2="1"><stop offset="0" stop-color="#f0f5f6"/><stop offset="1" stop-color="#dfe9eb"/></linearGradient>
<linearGradient id="sk6" x1="0" y1="0" x2="0" y2="1"><stop offset="0" stop-color="#e2f4f9"/><stop offset="1" stop-color="#bfe4ee"/></linearGradient>
<linearGradient id="fb6" x1="0" y1="0" x2="0" y2="1"><stop offset="0" stop-color="#f6fbfc"/><stop offset="1" stop-color="#dcebee"/></linearGradient>
<filter id="ds6" x="-20%" y="-20%" width="140%" height="140%"><feDropShadow dx="0" dy="5" stdDeviation="8" flood-color="#0b2b33" flood-opacity="0.15"/></filter>
</defs>
<rect width="600" height="450" fill="url(#wl6)"/>
<rect x="0" y="368" width="600" height="82" fill="#cfdadd"/>
<rect x="0" y="368" width="600" height="8" fill="#becdd1"/>
<rect x="120" y="60" width="360" height="270" rx="6" fill="#ffffff" filter="url(#ds6)"/>
<rect x="132" y="72" width="336" height="246" fill="url(#sk6)"/>
<rect x="132" y="72" width="336" height="160" fill="#0b2b33" fill-opacity="0.05"/><line x1="132" y1="80" x2="468" y2="80" stroke="#0b2b33" stroke-opacity="0.10"/><line x1="132" y1="94" x2="468" y2="94" stroke="#0b2b33" stroke-opacity="0.10"/><line x1="132" y1="108" x2="468" y2="108" stroke="#0b2b33" stroke-opacity="0.10"/><line x1="132" y1="122" x2="468" y2="122" stroke="#0b2b33" stroke-opacity="0.10"/><line x1="132" y1="136" x2="468" y2="136" stroke="#0b2b33" stroke-opacity="0.10"/><line x1="132" y1="150" x2="468" y2="150" stroke="#0b2b33" stroke-opacity="0.10"/><line x1="132" y1="164" x2="468" y2="164" stroke="#0b2b33" stroke-opacity="0.10"/><line x1="132" y1="178" x2="468" y2="178" stroke="#0b2b33" stroke-opacity="0.10"/><line x1="132" y1="192" x2="468" y2="192" stroke="#0b2b33" stroke-opacity="0.10"/><line x1="132" y1="206" x2="468" y2="206" stroke="#0b2b33" stroke-opacity="0.10"/><line x1="132" y1="220" x2="468" y2="220" stroke="#0b2b33" stroke-opacity="0.10"/><line x1="146" y1="76" x2="146" y2="230" stroke="#0b2b33" stroke-opacity="0.10"/><line x1="172" y1="76" x2="172" y2="230" stroke="#0b2b33" stroke-opacity="0.10"/><line x1="198" y1="76" x2="198" y2="230" stroke="#0b2b33" stroke-opacity="0.10"/><line x1="224" y1="76" x2="224" y2="230" stroke="#0b2b33" stroke-opacity="0.10"/><line x1="250" y1="76" x2="250" y2="230" stroke="#0b2b33" stroke-opacity="0.10"/><line x1="276" y1="76" x2="276" y2="230" stroke="#0b2b33" stroke-opacity="0.10"/><line x1="302" y1="76" x2="302" y2="230" stroke="#0b2b33" stroke-opacity="0.10"/><line x1="328" y1="76" x2="328" y2="230" stroke="#0b2b33" stroke-opacity="0.10"/><line x1="354" y1="76" x2="354" y2="230" stroke="#0b2b33" stroke-opacity="0.10"/><line x1="380" y1="76" x2="380" y2="230" stroke="#0b2b33" stroke-opacity="0.10"/><line x1="406" y1="76" x2="406" y2="230" stroke="#0b2b33" stroke-opacity="0.10"/><line x1="432" y1="76" x2="432" y2="230" stroke="#0b2b33" stroke-opacity="0.10"/><line x1="458" y1="76" x2="458" y2="230" stroke="#0b2b33" stroke-opacity="0.10"/><rect x="132" y="226" width="336" height="10" rx="4" fill="#33454a"/>
<rect x="70" y="330" width="120" height="46" rx="6" fill="#0B6C7E" opacity="0.92"/>
<rect x="430" y="318" width="100" height="58" rx="8" fill="#14A9C6" opacity="0.25"/>
<rect x="22" y="386" width="286" height="40" rx="20" fill="#0B2B33" opacity="0.88"/>
<text x="42" y="411" font-family="Inter,Arial,sans-serif" font-size="16" font-weight="700" fill="#eafcff">Outdoor screens · Point Cook</text>
</svg>