<svg xmlns="http://www.w3.org/2000/svg" viewBox="0 0 600 450" width="600" height="450" role="img" aria-label="Curtains installed in Highton">
<defs>
<linearGradient id="wl3" x1="0" y1="0" x2="0" y2="1"><stop offset="0" stop-color="#f0f5f6"/><stop offset="1" stop-color="#dfe9eb"/></linearGradient>
<linearGradient id="sk3" x1="0" y1="0" x2="0" y2="1"><stop offset="0" stop-color="#e2f4f9"/><stop offset="1" stop-color="#bfe4ee"/></linearGradient>
<linearGradient id="fb3" x1="0" y1="0" x2="0" y2="1"><stop offset="0" stop-color="#f6fbfc"/><stop offset="1" stop-color="#dcebee"/></linearGradient>
<filter id="ds3" x="-20%" y="-20%" width="140%" height="140%"><feDropShadow dx="0" dy="5" stdDeviation="8" flood-color="#0b2b33" flood-opacity="0.15"/></filter>
</defs>
<rect width="600" height="450" fill="url(#wl3)"/>
<rect x="0" y="368" width="600" height="82" fill="#cfdadd"/>
<rect x="0" y="368" width="600" height="8" fill="#becdd1"/>
<rect x="120" y="60" width="360" height="270" rx="6" fill="#ffffff" filter="url(#ds3)"/>
<rect x="132" y="72" width="336" height="246" fill="url(#sk3)"/>
<rect x="112" y="58" width="376" height="9" rx="4" fill="#0B6C7E"/><path d="M134 76 C 141 170, 127 250, 134 316 L 154 316 C 161 250, 147 170, 154 76 Z" fill="#ecf5f7"/><path d="M154 76 C 161 170, 147 250, 154 316 L 174 316 C 181 250, 167 170, 174 76 Z" fill="#dcebee"/><path d="M174 76 C 181 170, 167 250, 174 316 L 194 316 C 201 250, 187 170, 194 76 Z" fill="#ecf5f7"/><path d="M194 76 C 201 170, 187 250, 194 316 L 214 316 C 221 250, 207 170, 214 76 Z" fill="#dcebee"/><path d="M386 76 C 393 170, 379 250, 386 316 L 406 316 C 413 250, 399 170, 406 76 Z" fill="#ecf5f7"/><path d="M406 76 C 413 170, 399 250, 406 316 L 426 316 C 433 250, 419 170, 426 76 Z" fill="#dcebee"/><path d="M426 76 C 433 170, 419 250, 426 316 L 446 316 C 453 250, 439 170, 446 76 Z" fill="#ecf5f7"/><path d="M446 76 C 453 170, 439 250, 446 316 L 466 316 C 473 250, 459 170, 466 76 Z" fill="#dcebee"/>
<rect x="70" y="330" width="120" height="46" rx="6" fill="#0B6C7E" opacity="0.92"/>
<rect x="430" y="318" width="100" height="58" rx="8" fill="#14A9C6" opacity="0.25"/>
<rect x="22" y="386" width="286" height="40" rx="20" fill="#0B2B33" opacity="0.88"/>
<text x="42" y="411" font-family="Inter,Arial,sans-serif" font-size="16" font-weight="700" fill="#eafcff">Curtains · Highton</text>
</svg>