<svg xmlns="http://www.w3.org/2000/svg" viewBox="0 0 600 450" width="600" height="450" role="img" aria-label="Venetian blinds installed in Torquay">
<defs>
<linearGradient id="wl4" x1="0" y1="0" x2="0" y2="1"><stop offset="0" stop-color="#f0f5f6"/><stop offset="1" stop-color="#dfe9eb"/></linearGradient>
<linearGradient id="sk4" x1="0" y1="0" x2="0" y2="1"><stop offset="0" stop-color="#e2f4f9"/><stop offset="1" stop-color="#bfe4ee"/></linearGradient>
<linearGradient id="fb4" x1="0" y1="0" x2="0" y2="1"><stop offset="0" stop-color="#f6fbfc"/><stop offset="1" stop-color="#dcebee"/></linearGradient>
<filter id="ds4" x="-20%" y="-20%" width="140%" height="140%"><feDropShadow dx="0" dy="5" stdDeviation="8" flood-color="#0b2b33" flood-opacity="0.15"/></filter>
</defs>
<rect width="600" height="450" fill="url(#wl4)"/>
<rect x="0" y="368" width="600" height="82" fill="#cfdadd"/>
<rect x="0" y="368" width="600" height="8" fill="#becdd1"/>
<rect x="120" y="60" width="360" height="270" rx="6" fill="#ffffff" filter="url(#ds4)"/>
<rect x="132" y="72" width="336" height="246" fill="url(#sk4)"/>
<rect x="132" y="74" width="336" height="12" rx="2" fill="#f0f7f8"/><rect x="132" y="92" width="336" height="12" rx="2" fill="#dde9ec"/><rect x="132" y="110" width="336" height="12" rx="2" fill="#f0f7f8"/><rect x="132" y="128" width="336" height="12" rx="2" fill="#dde9ec"/><rect x="132" y="146" width="336" height="12" rx="2" fill="#f0f7f8"/><rect x="132" y="164" width="336" height="12" rx="2" fill="#dde9ec"/><rect x="132" y="182" width="336" height="12" rx="2" fill="#f0f7f8"/><rect x="132" y="200" width="336" height="12" rx="2" fill="#dde9ec"/><rect x="132" y="218" width="336" height="12" rx="2" fill="#f0f7f8"/><rect x="132" y="236" width="336" height="12" rx="2" fill="#dde9ec"/><rect x="132" y="254" width="336" height="12" rx="2" fill="#f0f7f8"/><rect x="132" y="272" width="336" height="12" rx="2" fill="#dde9ec"/><rect x="132" y="290" width="336" height="12" rx="2" fill="#f0f7f8"/>
<rect x="70" y="330" width="120" height="46" rx="6" fill="#0B6C7E" opacity="0.92"/>
<rect x="430" y="318" width="100" height="58" rx="8" fill="#14A9C6" opacity="0.25"/>
<rect x="22" y="386" width="286" height="40" rx="20" fill="#0B2B33" opacity="0.88"/>
<text x="42" y="411" font-family="Inter,Arial,sans-serif" font-size="16" font-weight="700" fill="#eafcff">Venetian blinds · Torquay</text>
</svg>