<svg xmlns="http://www.w3.org/2000/svg" viewBox="0 0 600 450" width="600" height="450" role="img" aria-label="Roller blinds installed in Armstrong Creek">
<defs>
<linearGradient id="wl1" x1="0" y1="0" x2="0" y2="1"><stop offset="0" stop-color="#f0f5f6"/><stop offset="1" stop-color="#dfe9eb"/></linearGradient>
<linearGradient id="sk1" x1="0" y1="0" x2="0" y2="1"><stop offset="0" stop-color="#e2f4f9"/><stop offset="1" stop-color="#bfe4ee"/></linearGradient>
<linearGradient id="fb1" x1="0" y1="0" x2="0" y2="1"><stop offset="0" stop-color="#f6fbfc"/><stop offset="1" stop-color="#dcebee"/></linearGradient>
<filter id="ds1" x="-20%" y="-20%" width="140%" height="140%"><feDropShadow dx="0" dy="5" stdDeviation="8" flood-color="#0b2b33" flood-opacity="0.15"/></filter>
</defs>
<rect width="600" height="450" fill="url(#wl1)"/>
<rect x="0" y="368" width="600" height="82" fill="#cfdadd"/>
<rect x="0" y="368" width="600" height="8" fill="#becdd1"/>
<rect x="120" y="60" width="360" height="270" rx="6" fill="#ffffff" filter="url(#ds1)"/>
<rect x="132" y="72" width="336" height="246" fill="url(#sk1)"/>
<rect x="132" y="72" width="336" height="152" fill="url(#fb1)"/><line x1="160" y1="72" x2="160" y2="216" stroke="#e8f1f3" stroke-width="1"/><line x1="216" y1="72" x2="216" y2="216" stroke="#e8f1f3" stroke-width="1"/><line x1="272" y1="72" x2="272" y2="216" stroke="#e8f1f3" stroke-width="1"/><line x1="328" y1="72" x2="328" y2="216" stroke="#e8f1f3" stroke-width="1"/><line x1="384" y1="72" x2="384" y2="216" stroke="#e8f1f3" stroke-width="1"/><line x1="440" y1="72" x2="440" y2="216" stroke="#e8f1f3" stroke-width="1"/><rect x="132" y="216" width="336" height="10" rx="5" fill="#0B6C7E"/>
<rect x="70" y="330" width="120" height="46" rx="6" fill="#0B6C7E" opacity="0.92"/>
<rect x="430" y="318" width="100" height="58" rx="8" fill="#14A9C6" opacity="0.25"/>
<rect x="22" y="386" width="286" height="40" rx="20" fill="#0B2B33" opacity="0.88"/>
<text x="42" y="411" font-family="Inter,Arial,sans-serif" font-size="16" font-weight="700" fill="#eafcff">Roller blinds · Armstrong Creek</text>
</svg>