<svg xmlns="http://www.w3.org/2000/svg" viewBox="0 0 600 450" width="600" height="450" role="img" aria-label="Plantation shutters installed in Ocean Grove">
<defs>
<linearGradient id="wl2" x1="0" y1="0" x2="0" y2="1"><stop offset="0" stop-color="#f0f5f6"/><stop offset="1" stop-color="#dfe9eb"/></linearGradient>
<linearGradient id="sk2" x1="0" y1="0" x2="0" y2="1"><stop offset="0" stop-color="#e2f4f9"/><stop offset="1" stop-color="#bfe4ee"/></linearGradient>
<linearGradient id="fb2" x1="0" y1="0" x2="0" y2="1"><stop offset="0" stop-color="#f6fbfc"/><stop offset="1" stop-color="#dcebee"/></linearGradient>
<filter id="ds2" x="-20%" y="-20%" width="140%" height="140%"><feDropShadow dx="0" dy="5" stdDeviation="8" flood-color="#0b2b33" flood-opacity="0.15"/></filter>
</defs>
<rect width="600" height="450" fill="url(#wl2)"/>
<rect x="0" y="368" width="600" height="82" fill="#cfdadd"/>
<rect x="0" y="368" width="600" height="8" fill="#becdd1"/>
<rect x="120" y="60" width="360" height="270" rx="6" fill="#ffffff" filter="url(#ds2)"/>
<rect x="132" y="72" width="336" height="246" fill="url(#sk2)"/>
<rect x="138" y="72" width="156" height="246" fill="#fbfdfd" stroke="#d8e4e6"/><rect x="148" y="88" width="132" height="15" rx="7" fill="#f1f7f8"/><rect x="148" y="112" width="132" height="15" rx="7" fill="#e0edef"/><rect x="148" y="136" width="132" height="15" rx="7" fill="#f1f7f8"/><rect x="148" y="160" width="132" height="15" rx="7" fill="#e0edef"/><rect x="148" y="184" width="132" height="15" rx="7" fill="#f1f7f8"/><rect x="148" y="208" width="132" height="15" rx="7" fill="#e0edef"/><rect x="148" y="232" width="132" height="15" rx="7" fill="#f1f7f8"/><rect x="148" y="256" width="132" height="15" rx="7" fill="#e0edef"/><rect x="148" y="280" width="132" height="15" rx="7" fill="#f1f7f8"/><rect x="306" y="72" width="156" height="246" fill="#fbfdfd" stroke="#d8e4e6"/><rect x="316" y="88" width="132" height="15" rx="7" fill="#f1f7f8"/><rect x="316" y="112" width="132" height="15" rx="7" fill="#e0edef"/><rect x="316" y="136" width="132" height="15" rx="7" fill="#f1f7f8"/><rect x="316" y="160" width="132" height="15" rx="7" fill="#e0edef"/><rect x="316" y="184" width="132" height="15" rx="7" fill="#f1f7f8"/><rect x="316" y="208" width="132" height="15" rx="7" fill="#e0edef"/><rect x="316" y="232" width="132" height="15" rx="7" fill="#f1f7f8"/><rect x="316" y="256" width="132" height="15" rx="7" fill="#e0edef"/><rect x="316" y="280" width="132" height="15" rx="7" fill="#f1f7f8"/>
<rect x="70" y="330" width="120" height="46" rx="6" fill="#0B6C7E" opacity="0.92"/>
<rect x="430" y="318" width="100" height="58" rx="8" fill="#14A9C6" opacity="0.25"/>
<rect x="22" y="386" width="286" height="40" rx="20" fill="#0B2B33" opacity="0.88"/>
<text x="42" y="411" font-family="Inter,Arial,sans-serif" font-size="16" font-weight="700" fill="#eafcff">Plantation shutters · Ocean Grove</text>
</svg>