<svg xmlns="http://www.w3.org/2000/svg" viewBox="0 0 640 400" width="640" height="400" role="img" aria-label="Outdoor &amp; Zip Screens — illustrative sample">
<defs>
<linearGradient id="wall" x1="0" y1="0" x2="0" y2="1"><stop offset="0" stop-color="#eef3f4"/><stop offset="1" stop-color="#dfe8ea"/></linearGradient>
<linearGradient id="sky" x1="0" y1="0" x2="0" y2="1"><stop offset="0" stop-color="#dff3f8"/><stop offset="1" stop-color="#bfe6ef"/></linearGradient>
<linearGradient id="fab" x1="0" y1="0" x2="0" y2="1"><stop offset="0" stop-color="#f4fafb"/><stop offset="1" stop-color="#dcecef"/></linearGradient>
<linearGradient id="wood" x1="0" y1="0" x2="0" y2="1"><stop offset="0" stop-color="#fbfdfd"/><stop offset="1" stop-color="#e7f0f2"/></linearGradient>
<linearGradient id="turq" x1="0" y1="0" x2="1" y2="1"><stop offset="0" stop-color="#25C9DD"/><stop offset="1" stop-color="#0B6C7E"/></linearGradient>
<filter id="sh" x="-20%" y="-20%" width="140%" height="140%"><feDropShadow dx="0" dy="6" stdDeviation="10" flood-color="#0b2b33" flood-opacity="0.14"/></filter>
</defs>
<rect width="640" height="400" fill="url(#wall)"/>
<rect x="0" y="340" width="640" height="60" fill="#d3dee0"/>
<rect x="130" y="60" width="380" height="280" rx="6" fill="#cfe6ec"/><rect x="150" y="70" width="340" height="250" fill="url(#sky)"/>
<rect x="138" y="60" width="14" height="280" fill="#33454a"/><rect x="488" y="60" width="14" height="280" fill="#33454a"/>
<rect x="150" y="70" width="340" height="160" fill="#0b2b33" fill-opacity="0.06"/><line x1="150" y1="80" x2="490" y2="80" stroke="#0b2b33" stroke-opacity="0.10" stroke-width="1"/><line x1="150" y1="90" x2="490" y2="90" stroke="#0b2b33" stroke-opacity="0.10" stroke-width="1"/><line x1="150" y1="100" x2="490" y2="100" stroke="#0b2b33" stroke-opacity="0.10" stroke-width="1"/><line x1="150" y1="110" x2="490" y2="110" stroke="#0b2b33" stroke-opacity="0.10" stroke-width="1"/><line x1="150" y1="120" x2="490" y2="120" stroke="#0b2b33" stroke-opacity="0.10" stroke-width="1"/><line x1="150" y1="130" x2="490" y2="130" stroke="#0b2b33" stroke-opacity="0.10" stroke-width="1"/><line x1="150" y1="140" x2="490" y2="140" stroke="#0b2b33" stroke-opacity="0.10" stroke-width="1"/><line x1="150" y1="150" x2="490" y2="150" stroke="#0b2b33" stroke-opacity="0.10" stroke-width="1"/><line x1="150" y1="160" x2="490" y2="160" stroke="#0b2b33" stroke-opacity="0.10" stroke-width="1"/><line x1="150" y1="170" x2="490" y2="170" stroke="#0b2b33" stroke-opacity="0.10" stroke-width="1"/><line x1="150" y1="180" x2="490" y2="180" stroke="#0b2b33" stroke-opacity="0.10" stroke-width="1"/><line x1="150" y1="190" x2="490" y2="190" stroke="#0b2b33" stroke-opacity="0.10" stroke-width="1"/><line x1="150" y1="200" x2="490" y2="200" stroke="#0b2b33" stroke-opacity="0.10" stroke-width="1"/><line x1="150" y1="210" x2="490" y2="210" stroke="#0b2b33" stroke-opacity="0.10" stroke-width="1"/><line x1="150" y1="220" x2="490" y2="220" stroke="#0b2b33" stroke-opacity="0.10" stroke-width="1"/><line x1="150" y1="80" x2="150" y2="230" stroke="#0b2b33" stroke-opacity="0.10" stroke-width="1"/><line x1="170" y1="80" x2="170" y2="230" stroke="#0b2b33" stroke-opacity="0.10" stroke-width="1"/><line x1="190" y1="80" x2="190" y2="230" stroke="#0b2b33" stroke-opacity="0.10" stroke-width="1"/><line x1="210" y1="80" x2="210" y2="230" stroke="#0b2b33" stroke-opacity="0.10" stroke-width="1"/><line x1="230" y1="80" x2="230" y2="230" stroke="#0b2b33" stroke-opacity="0.10" stroke-width="1"/><line x1="250" y1="80" x2="250" y2="230" stroke="#0b2b33" stroke-opacity="0.10" stroke-width="1"/><line x1="270" y1="80" x2="270" y2="230" stroke="#0b2b33" stroke-opacity="0.10" stroke-width="1"/><line x1="290" y1="80" x2="290" y2="230" stroke="#0b2b33" stroke-opacity="0.10" stroke-width="1"/><line x1="310" y1="80" x2="310" y2="230" stroke="#0b2b33" stroke-opacity="0.10" stroke-width="1"/><line x1="330" y1="80" x2="330" y2="230" stroke="#0b2b33" stroke-opacity="0.10" stroke-width="1"/><line x1="350" y1="80" x2="350" y2="230" stroke="#0b2b33" stroke-opacity="0.10" stroke-width="1"/><line x1="370" y1="80" x2="370" y2="230" stroke="#0b2b33" stroke-opacity="0.10" stroke-width="1"/><line x1="390" y1="80" x2="390" y2="230" stroke="#0b2b33" stroke-opacity="0.10" stroke-width="1"/><line x1="410" y1="80" x2="410" y2="230" stroke="#0b2b33" stroke-opacity="0.10" stroke-width="1"/><line x1="430" y1="80" x2="430" y2="230" stroke="#0b2b33" stroke-opacity="0.10" stroke-width="1"/><line x1="450" y1="80" x2="450" y2="230" stroke="#0b2b33" stroke-opacity="0.10" stroke-width="1"/><line x1="470" y1="80" x2="470" y2="230" stroke="#0b2b33" stroke-opacity="0.10" stroke-width="1"/><line x1="490" y1="80" x2="490" y2="230" stroke="#0b2b33" stroke-opacity="0.10" stroke-width="1"/>
<rect x="150" y="226" width="340" height="10" rx="4" fill="#33454a"/>
</svg>