<svg xmlns="http://www.w3.org/2000/svg" viewBox="0 0 640 400" width="640" height="400" role="img" aria-label="Plantation Shutters — illustrative sample">
<defs>
<linearGradient id="wall" x1="0" y1="0" x2="0" y2="1"><stop offset="0" stop-color="#eef3f4"/><stop offset="1" stop-color="#dfe8ea"/></linearGradient>
<linearGradient id="sky" x1="0" y1="0" x2="0" y2="1"><stop offset="0" stop-color="#dff3f8"/><stop offset="1" stop-color="#bfe6ef"/></linearGradient>
<linearGradient id="fab" x1="0" y1="0" x2="0" y2="1"><stop offset="0" stop-color="#f4fafb"/><stop offset="1" stop-color="#dcecef"/></linearGradient>
<linearGradient id="wood" x1="0" y1="0" x2="0" y2="1"><stop offset="0" stop-color="#fbfdfd"/><stop offset="1" stop-color="#e7f0f2"/></linearGradient>
<linearGradient id="turq" x1="0" y1="0" x2="1" y2="1"><stop offset="0" stop-color="#25C9DD"/><stop offset="1" stop-color="#0B6C7E"/></linearGradient>
<filter id="sh" x="-20%" y="-20%" width="140%" height="140%"><feDropShadow dx="0" dy="6" stdDeviation="10" flood-color="#0b2b33" flood-opacity="0.14"/></filter>
</defs>
<rect width="640" height="400" fill="url(#wall)"/>
<rect x="0" y="340" width="640" height="60" fill="#d3dee0"/>
<rect x="140" y="60" width="360" height="270" rx="6" fill="url(#wood)" filter="url(#sh)"/><rect x="150" y="70" width="340" height="250" fill="url(#sky)"/><g filter="url(#sh)"><rect x="154" y="70" width="152" height="250" rx="4" fill="url(#wood)" stroke="#d5e2e4"/><rect x="166" y="86" width="128" height="14" rx="7" fill="#f2f8f9"/><rect x="166" y="108" width="128" height="14" rx="7" fill="#e0edef"/><rect x="166" y="130" width="128" height="14" rx="7" fill="#f2f8f9"/><rect x="166" y="152" width="128" height="14" rx="7" fill="#e0edef"/><rect x="166" y="174" width="128" height="14" rx="7" fill="#f2f8f9"/><rect x="166" y="196" width="128" height="14" rx="7" fill="#e0edef"/><rect x="166" y="218" width="128" height="14" rx="7" fill="#f2f8f9"/><rect x="166" y="240" width="128" height="14" rx="7" fill="#e0edef"/><rect x="166" y="262" width="128" height="14" rx="7" fill="#f2f8f9"/><rect x="166" y="284" width="128" height="14" rx="7" fill="#e0edef"/><rect x="226" y="86" width="6" height="220" fill="#cbd9dc"/><rect x="320" y="70" width="152" height="250" rx="4" fill="url(#wood)" stroke="#d5e2e4"/><rect x="332" y="86" width="128" height="14" rx="7" fill="#f2f8f9"/><rect x="332" y="108" width="128" height="14" rx="7" fill="#e0edef"/><rect x="332" y="130" width="128" height="14" rx="7" fill="#f2f8f9"/><rect x="332" y="152" width="128" height="14" rx="7" fill="#e0edef"/><rect x="332" y="174" width="128" height="14" rx="7" fill="#f2f8f9"/><rect x="332" y="196" width="128" height="14" rx="7" fill="#e0edef"/><rect x="332" y="218" width="128" height="14" rx="7" fill="#f2f8f9"/><rect x="332" y="240" width="128" height="14" rx="7" fill="#e0edef"/><rect x="332" y="262" width="128" height="14" rx="7" fill="#f2f8f9"/><rect x="332" y="284" width="128" height="14" rx="7" fill="#e0edef"/><rect x="392" y="86" width="6" height="220" fill="#cbd9dc"/></g>
</svg>